<svg xmlns="http://www.w3.org/2000/svg" width="37" height="38" viewBox="0 0 37 38">
    <g fill="none" fill-rule="evenodd" stroke="#02BAD3" stroke-linecap="round" stroke-linejoin="round" stroke-width="2">
        <path d="M6.434 36.192h-3.02c-1.098 0-1.99-.865-1.99-1.933V24.126c0-1.068.892-1.934 1.99-1.934h3.02c1.1 0 1.99.866 1.99 1.934V34.26c0 1.068-.89 1.933-1.99 1.933zM18.924 19.192a47.867 47.867 0 0 1-7.107-6.01c-1.698-1.75-3.393-3.505-3.393-6.12 0-3.242 2.35-5.87 5.25-5.87s5.25 2.628 5.25 5.87c0-3.242 2.35-5.87 5.25-5.87s5.25 2.628 5.25 5.87c0 2.615-1.694 4.37-3.392 6.12a47.845 47.845 0 0 1-7.108 6.01z"/>
        <path d="M25.095 28.277s1.552.322 1.977-.305l4.128-4.8c.837-.972 2.34-1.112 3.356-.31 1.016.8 1.162 2.24.325 3.213l-4.605 5.353c-2.387 2.563-6.751 2.764-6.751 2.764h-9.537c-3.974 0-5.564-1.141-5.564-1.141V24.3s3.974-4.186 9.14-.762c0 0 .994.761 1.69.761h5.562c1.153 0 2.086.895 2.086 1.998s-.933 1.997-2.086 1.997h-7.55"/>
    </g>
</svg>
