<svg xmlns="http://www.w3.org/2000/svg" width="25" height="25" viewBox="0 0 25 25">
    <g fill="none" fill-rule="evenodd" stroke="#02BAD3" stroke-linecap="round">
        <path stroke-linejoin="round" d="M22.038 12.641L9.913 25 .51 15.416 12.634 3.057 20.8 4.318z"/>
        <path stroke-linejoin="round" d="M18.853 8.827a1.402 1.402 0 0 1-1.964 0 1.359 1.359 0 0 1 0-1.94 1.401 1.401 0 0 1 1.964 0 1.36 1.36 0 0 1 0 1.94z"/>
        <path d="M15.788 15.057H5.37"/>
        <path stroke-linejoin="round" d="M11.909 19.113a1.402 1.402 0 0 1-1.965 0 1.36 1.36 0 0 1 0-1.94 1.402 1.402 0 0 1 1.965 0 1.36 1.36 0 0 1 0 1.94zM11.909 12.255a1.402 1.402 0 0 1-1.965 0 1.36 1.36 0 0 1 0-1.94 1.402 1.402 0 0 1 1.965 0 1.36 1.36 0 0 1 0 1.94zM18.565 7.171L24.815 1"/>
    </g>
</svg>
