<svg xmlns="http://www.w3.org/2000/svg" width="24" height="23" viewBox="0 0 24 23">
    <g fill="gray" fill-rule="nonzero">
        <path d="M3.414.562A1.971 1.971 0 0 0 2 0C1.448 0 .977.188.586.562A1.81 1.81 0 0 0 0 1.917c0 .718.333 1.268 1 1.647V22.52c0 .13.05.242.149.337A.491.491 0 0 0 1.5 23h1a.49.49 0 0 0 .352-.142A.451.451 0 0 0 3 22.52V3.564c.667-.38 1-.929 1-1.647 0-.53-.195-.98-.586-1.355zM23.742 1.278A.808.808 0 0 0 23.13 1c-.117 0-.364.102-.74.308-.376.205-.775.434-1.196.688-.42.254-.92.483-1.494.689-.575.205-1.108.307-1.596.307-.453 0-.852-.093-1.196-.278-1.142-.576-2.133-1.006-2.976-1.29A8.474 8.474 0 0 0 11.215 1c-1.676 0-3.583.586-5.72 1.758-.526.283-.883.493-1.074.63-.28.224-.421.493-.421.805v10.87c0 .253.086.473.258.659A.806.806 0 0 0 4.87 16a.904.904 0 0 0 .448-.132c2.464-1.426 4.565-2.138 6.304-2.138.662 0 1.307.107 1.936.322.63.215 1.153.45 1.57.703.416.254.908.488 1.474.703a4.717 4.717 0 0 0 1.678.322c1.395 0 3.066-.566 5.013-1.7.245-.136.424-.27.537-.402.113-.132.17-.32.17-.564V1.937a.936.936 0 0 0-.258-.659z"/>
    </g>
</svg>
