<svg xmlns="http://www.w3.org/2000/svg" width="30" height="38" viewBox="0 0 30 38">
    <g fill="none" fill-rule="evenodd" stroke="#FFF" stroke-linecap="round" stroke-linejoin="round" stroke-width="2">
        <path d="M5.605 15.554L4.57 34.341c0 1.212 1.028 2.194 2.297 2.194 1.27 0 2.298-.982 2.298-2.194L8.129 15.554v.002c2.566-.55 4.482-2.737 4.482-5.353V1.975h-2.297v7.68H8.016v-7.68H5.718v7.68H3.421v-7.68H1.124v8.228c0 2.616 1.916 4.804 4.48 5.353M23.522 15.452l1 18.878a2.212 2.212 0 0 1-2.22 2.205 2.212 2.212 0 0 1-2.218-2.205l1-18.878.002-.007C18.298 14.782 16.2 11.89 16.2 8.42c0-3.958 2.732-7.166 6.102-7.166s6.103 3.208 6.103 7.166c0 3.463-2.092 6.353-4.873 7.02"/>
    </g>
</svg>
