<svg xmlns="http://www.w3.org/2000/svg" width="39" height="39" viewBox="0 0 39 39">
    <g fill="none" fill-rule="evenodd" stroke="#FFF" stroke-linecap="round" stroke-linejoin="round" stroke-width="2">
        <path d="M21.606 13.938a6.398 6.398 0 0 0-9.224.051 6.852 6.852 0 0 0-1.749 3.3 7.481 7.481 0 0 0-6.767 2.202c-2.981 3.1-2.981 8.173 0 11.274l4.721 4.91a7.48 7.48 0 0 0 10.84 0c1.864-1.938 2.562-4.646 2.096-7.162l.02.124a6.436 6.436 0 0 0 3.175-1.82c2.533-2.634 2.55-6.936.048-9.592"/>
        <path d="M15.63 20.748L28.568 7l3.062 3.253L18.692 24"/>
        <path d="M17.458 26.828a4 4 0 1 1-5.656-5.656 4 4 0 0 1 5.656 5.656zM6.63 27l6 6M31.87 10l3.487-2.272L37.63 4.24 34.39 1l-3.488 2.272L28.63 6.76"/>
    </g>
</svg>
