<svg xmlns="http://www.w3.org/2000/svg" width="28" height="28" viewBox="0 0 28 28">
    <g fill="none" fill-rule="evenodd" stroke="#02BAD3" stroke-linecap="round" stroke-linejoin="round">
        <path d="M15.48 10.092a4.496 4.496 0 0 0-6.482.035 4.815 4.815 0 0 0-1.229 2.319 5.257 5.257 0 0 0-4.755 1.548c-2.095 2.178-2.095 5.743 0 7.922l3.317 3.45a5.256 5.256 0 0 0 7.618 0c1.31-1.362 1.8-3.265 1.473-5.032l.014.086a4.522 4.522 0 0 0 2.23-1.278c1.78-1.852 1.792-4.874.035-6.74"/>
        <path d="M11.28 14.877l9.092-9.66 2.152 2.285-9.092 9.66"/>
        <path d="M12.565 19.15a2.81 2.81 0 1 1-3.975-3.975 2.81 2.81 0 0 1 3.975 3.975zM4.956 19.27l4.216 4.216M22.693 7.324l2.45-1.596 1.597-2.45L24.463 1l-2.45 1.597-1.597 2.45"/>
    </g>
</svg>
