<svg xmlns="http://www.w3.org/2000/svg" width="24" height="43" viewBox="0 0 24 43">
    <g fill="none" fill-rule="evenodd" stroke="#02BAD3" stroke-linecap="round" stroke-linejoin="round" stroke-width="2">
        <path d="M10.371 1l1.7 3.62 3.8.582-2.75 2.818.65 3.98-3.4-1.879L6.972 12l.65-3.98-2.75-2.818 3.8-.581zM12.33 28.5v-3.484c0-.962.782-1.742 1.747-1.742.964 0 1.746.78 1.746 1.742V28.5v-2.612c0-.963.781-1.742 1.746-1.742.964 0 1.746.779 1.746 1.742V28.5v-1.742c0-.962.781-1.742 1.746-1.742.964 0 1.746.78 1.746 1.742v3.484c.08 1.317.087 2.647.012 3.965-.048.854-.105 1.76-.374 2.578-.59 1.794-1.512 3.482-2.257 5.215H8.402s-3.055-3.92-3.928-5.226c-.873-1.306-2.522-8.176-2.522-8.176a2.354 2.354 0 0 1 1.222-2.715 2.363 2.363 0 0 1 3.169 1.049l2.014 4.004.045-.023V16.96c0-1.083.88-1.96 1.964-1.96 1.085 0 1.965.877 1.965 1.96v11.268"/>
    </g>
</svg>
