<svg xmlns="http://www.w3.org/2000/svg" width="17" height="29" viewBox="0 0 17 29">
    <g fill="none" fill-rule="evenodd" stroke="#FFF" stroke-linecap="round" stroke-linejoin="round">
        <path d="M6.815 0l1.237 2.473 2.763.396-2 1.925.473 2.718L6.815 6.23 4.343 7.512l.472-2.718-2-1.925 2.764-.396zM8.24 18.78v-2.379c0-.657.569-1.19 1.27-1.19.702 0 1.27.533 1.27 1.19v2.38-1.785c0-.657.569-1.19 1.27-1.19.701 0 1.27.533 1.27 1.19v1.785-1.19c0-.657.568-1.19 1.27-1.19.7 0 1.27.533 1.27 1.19v2.38c.057.899.063 1.807.008 2.707-.035.583-.076 1.201-.272 1.76-.429 1.226-1.1 2.378-1.641 3.562H5.383s-2.222-2.677-2.857-3.569C1.892 23.54.692 18.847.692 18.847c-.207-.722.147-1.506.89-1.854.847-.398 1.878-.078 2.304.716l1.464 2.735.033-.015v-9.53c0-.739.64-1.338 1.429-1.338s1.429.6 1.429 1.338v7.696"/>
    </g>
</svg>
