<svg xmlns="http://www.w3.org/2000/svg" xmlns:xlink="http://www.w3.org/1999/xlink" width="22" height="27" viewBox="0 0 22 27">
    <defs>
        <path id="a" d="M.314 27h21.333V0H.314z"/>
    </defs>
    <g fill="none" fill-rule="evenodd">
        <path stroke="#02BAD3" stroke-linecap="round" stroke-linejoin="round" d="M3.982 17.357C2.13 15.587.98 13.121.98 10.393c0-5.385 4.478-9.75 10-9.75 5.523 0 10 4.365 10 9.75 0 2.692-1.119 5.13-2.928 6.894"/>
        <mask id="b" fill="#fff">
            <use xlink:href="#a"/>
        </mask>
        <path stroke="#02BAD3" stroke-linecap="round" stroke-linejoin="round" d="M8.98 26.357h4v-3.214h-4zM9.339 23.143l-5.025-5.724 14-.062-5.098 5.786M11.647.643c2.095 1.622 6.488 6.425 2.162 16.071M8.17 16.714C3.81 7.056 8.222 2.257 10.314.643" mask="url(#b)"/>
    </g>
</svg>
