<svg xmlns="http://www.w3.org/2000/svg" width="40" height="36" viewBox="0 0 40 36">
    <g fill="none" fill-rule="evenodd" stroke="#FFF" stroke-width="2">
        <path d="M.783 11H6.07c.993 0 1.798.765 1.798 1.708v2.863-.351 3.348c0 4.657 3.975 8.432 8.878 8.432h13.158c4.903 0 8.878-3.775 8.878-8.432V15.22H7.869M24.783 15l10-10"/>
        <path d="M38.783 15c0-7.732-6.268-14-14-14v14M17.783 32.5a2.5 2.5 0 1 1-5 0 2.5 2.5 0 0 1 5 0zM33.783 32.5a2.5 2.5 0 1 1-5 0 2.5 2.5 0 0 1 5 0z"/>
    </g>
</svg>
