<svg xmlns="http://www.w3.org/2000/svg" width="28" height="26" viewBox="0 0 28 26">
    <g fill="none" fill-rule="evenodd" stroke="#02BAD3">
        <path d="M.542 8.059h3.66c.688 0 1.246.54 1.246 1.206v2.02-.247V13.4c0 3.287 2.751 5.952 6.146 5.952h9.11c3.394 0 6.145-2.665 6.145-5.952v-2.363H5.448M17.157 10.882l6.923-7.058"/>
        <path d="M26.85 10.882C26.85 5.425 22.51 1 17.156 1v9.882M12.311 23.235c0 .975-.775 1.765-1.73 1.765-.957 0-1.732-.79-1.732-1.765 0-.974.775-1.764 1.731-1.764.956 0 1.731.79 1.731 1.764zM23.388 23.235c0 .975-.775 1.765-1.73 1.765-.957 0-1.732-.79-1.732-1.765 0-.974.775-1.764 1.731-1.764.956 0 1.731.79 1.731 1.764z"/>
    </g>
</svg>
