<svg xmlns="http://www.w3.org/2000/svg" width="26" height="23" viewBox="0 0 26 23">
    <g fill="none" fill-rule="nonzero">
        <g fill="#44C868">
            <path d="M25.048 22.525l-2.006-11.307a.383.383 0 0 0-.187-.266l-5.049-2.873a.366.366 0 0 0-.21-.047l.918 12.123-.031.014 6.042 2.773a.368.368 0 0 0 .385-.047.387.387 0 0 0 .138-.37zM12.287 10.825L7.124 8.074a.366.366 0 0 0-.145-.042l-.918 12.123 6.073 2.788a.368.368 0 0 0 .153.033v-12.15z"/>
        </g>
        <g fill="#4CE166">
            <path d="M7.512 8.032a.367.367 0 0 0-.211.047l-5.05 2.873a.383.383 0 0 0-.186.266L.06 22.525a.387.387 0 0 0 .137.37.37.37 0 0 0 .385.048l6.01-2.759.92-12.152zM18.128 8.032a.367.367 0 0 0-.144.042l-5.164 2.751v12.151a.367.367 0 0 0 .153-.033l6.074-2.788-.919-12.123z"/>
        </g>
        <path fill="#FFDB56" d="M.514 14.88L.054 17l6.815-3.01.158-1.707.027-.283z"/>
        <path fill="#A8EEFC" d="M7.054 13L7 13.716l-5.962 3.257-.978 5.576a.39.39 0 0 0 .136.37.363.363 0 0 0 .38.047l5.937-2.754.54-7.212z"/>
        <g fill="#FFBB24">
            <path d="M12.855 11.943l-5.589-.796-.164 2.104 5.752 8.7v-3.163l-3.432-5.383 3.433.409zM23.05 10.366l-2.43-1.348-2.303.536.029.37.114 1.462z"/>
        </g>
        <path fill="#FFDB56" d="M18.054 15l-.226-2.515L17.695 11l-5.641 2.144v1.68l3.685-1.388z"/>
        <path fill="#FFBB24" d="M25.048 22.641l-.492-2.81L18.054 12l.198 2.66L24.921 23a.386.386 0 0 0 .127-.359z"/>
        <path fill="#FF4A4A" d="M12.554 0c-3.033 0-5.5 2.268-5.5 5.057 0 1.724.89 3.576 2.645 5.503a18.222 18.222 0 0 0 2.614 2.364.415.415 0 0 0 .481 0 18.225 18.225 0 0 0 2.614-2.364c1.756-1.927 2.646-3.779 2.646-5.503 0-2.789-2.468-5.057-5.5-5.057zm2.036 5.057c0 1.034-.912 1.872-2.036 1.872-1.125 0-2.037-.838-2.037-1.872 0-1.035.912-1.873 2.037-1.873 1.124 0 2.036.838 2.036 1.873z"/>
        <path fill="#E7343F" d="M12.74 0c-.233 0-.462.014-.686.042 2.607.32 4.629 2.447 4.629 5.015 0 1.724-.86 3.576-2.556 5.503a18.57 18.57 0 0 1-2.073 2.006c.265.22.434.345.453.358a.392.392 0 0 0 .465 0c.051-.038 1.28-.948 2.526-2.364 1.696-1.927 2.556-3.779 2.556-5.503C18.054 2.268 15.669 0 12.739 0z"/>
        <path fill="#FFDB56" d="M13.18 22.963l1.874-1.144-2-2.819v4a.242.242 0 0 0 .127-.037z"/>
        <g fill="#1EA4E9">
            <path d="M23.5 11.502a.374.374 0 0 0-.192-.26l-.408-.221-4.703 1.02 6.845 7.723-1.543-8.262zM12.455 22.977v-.374l-5.89-8.698-.504 6.319 6.237 2.72c.05.022.104.033.157.033z"/>
        </g>
    </g>
</svg>
