<svg xmlns="http://www.w3.org/2000/svg" width="12" height="15" viewBox="0 0 12 15">
    <path fill="#484848" fill-rule="nonzero" d="M6.001.763C3.07.763.685 2.998.685 5.746c0 .716.156 1.4.465 2.033 1.329 2.726 3.878 5.604 4.627 6.421a.305.305 0 0 0 .224.096.305.305 0 0 0 .225-.096c.749-.817 3.297-3.694 4.627-6.42a4.601 4.601 0 0 0 .465-2.034c0-2.748-2.385-4.983-5.317-4.983zm.005 7.07c-1.305 0-2.368-.996-2.368-2.22 0-1.223 1.063-2.218 2.368-2.218 1.306 0 2.368.995 2.368 2.219 0 1.223-1.062 2.219-2.368 2.219z"/>
</svg>
