<svg xmlns="http://www.w3.org/2000/svg" width="15" height="19" viewBox="0 0 15 19">
    <g fill="#FFF" fill-rule="nonzero">
        <path d="M7.238 0c-3.86 0-7 2.997-7 6.68a6.44 6.44 0 0 0 1.045 3.512l5.557 8.545a.59.59 0 0 0 .495.263h.005a.59.59 0 0 0 .496-.27l5.415-8.628a6.442 6.442 0 0 0 .987-3.422c0-3.683-3.14-6.68-7-6.68zm5.012 9.53l-4.924 7.844-5.051-7.768a5.373 5.373 0 0 1-.878-2.926c0-3.07 2.625-5.574 5.841-5.574 3.217 0 5.837 2.504 5.837 5.574a5.37 5.37 0 0 1-.825 2.85z"/>
        <path d="M7.238 4c-1.654 0-3 1.346-3 3 0 1.644 1.324 3 3 3 1.697 0 3-1.374 3-3 0-1.654-1.346-3-3-3zm0 5.007A2.008 2.008 0 0 1 5.231 7c0-1.103.904-2.007 2.007-2.007A2.01 2.01 0 0 1 9.241 7c0 1.09-.877 2.007-2.003 2.007z"/>
    </g>
</svg>
