<svg xmlns="http://www.w3.org/2000/svg" width="35" height="38" viewBox="0 0 35 38">
    <g fill="none" fill-rule="evenodd" stroke="#FFF" stroke-linecap="round" stroke-linejoin="round" stroke-width="2">
        <path d="M5.865 18.182V24.699C5.865 31.493 11.405 37 18.24 37c6.834 0 12.375-5.507 12.375-12.3V18.181"/>
        <path d="M3.39 19.817V14.8C3.39 7.178 9.854 1 17.827 1c7.974 0 14.438 6.178 14.438 13.8v5.018"/>
        <path d="M5.04 25.545c-1.823 0-3.3-1.465-3.3-3.272C1.74 20.465 3.217 19 5.04 19M30.615 19c1.823 0 3.3 1.465 3.3 3.273 0 1.807-1.477 3.272-3.3 3.272M24.015 13.273c-3.475 3.05-8.099 4.909-13.175 4.909-1.72 0-3.387-.213-4.975-.615M30.615 18.182c-2.74-.497-5.093-2.004-6.6-4.091M21.54 27.182c0 1.807-1.663 3.273-3.713 3.273s-3.712-1.466-3.712-3.273"/>
    </g>
</svg>
