<svg xmlns="http://www.w3.org/2000/svg" width="24" height="27" viewBox="0 0 24 27">
    <g fill="none" fill-rule="evenodd" stroke="#02BAD3" stroke-linecap="round" stroke-linejoin="round">
        <path d="M3.39 12.932v4.526C3.39 22.176 7.253 26 12.017 26c4.763 0 8.625-3.824 8.625-8.542v-4.526"/>
        <path d="M1.666 14.068v-3.485C1.666 5.29 6.17 1 11.728 1c5.558 0 10.063 4.29 10.063 9.583v3.485"/>
        <path d="M2.816 18.045c-1.27 0-2.3-1.017-2.3-2.272s1.03-2.273 2.3-2.273M20.64 13.5c1.271 0 2.3 1.017 2.3 2.273 0 1.255-1.029 2.272-2.3 2.272M16.04 9.523c-2.421 2.117-5.644 3.409-9.182 3.409-1.198 0-2.36-.148-3.467-.427M20.64 12.932c-1.909-.345-3.549-1.392-4.6-2.841M14.316 19.182c0 1.255-1.159 2.273-2.588 2.273s-2.587-1.018-2.587-2.273"/>
    </g>
</svg>
