<svg xmlns="http://www.w3.org/2000/svg" width="27" height="26" viewBox="0 0 27 26">
    <g fill="none" fill-rule="evenodd" stroke="#02BAD3" stroke-linecap="round" stroke-linejoin="round">
        <path d="M6.359 18.753l-1.624-1.65C13.173-1.532 25.393 1.13 25.393 1.13l.046.047s2.618 12.421-15.713 20.998l-1.524-1.549"/>
        <path d="M10.985 18.647l2.157 2.13L12.599 25c4.973-3.719 3.827-6.224 3.827-6.224M7.326 10.291s-2.44-1.152-6.064 3.847l4.116-.546 2.134 2.232M4.735 22.176c8.506-3.458 6.805-6.917 6.805-6.917s-3.403-1.73-6.805 6.917zM24.873 8.059a11.11 11.11 0 0 1-3.297-2.33 11.358 11.358 0 0 1-2.258-3.317M18.504 12.173a2.746 2.746 0 0 1-3.928 0 2.856 2.856 0 0 1 0-3.993 2.746 2.746 0 0 1 3.928 0 2.856 2.856 0 0 1 0 3.993z"/>
    </g>
</svg>
