<svg xmlns="http://www.w3.org/2000/svg" width="38" height="36" viewBox="0 0 38 36">
    <g fill="none" fill-rule="evenodd" stroke="#FFF" stroke-linecap="round" stroke-linejoin="round" stroke-width="2">
        <path d="M8.716 26.15l-2.338-2.338C18.528-2.585 36.126 1.186 36.126 1.186l.066.065S39.962 18.85 13.566 31l-2.195-2.195"/>
        <path d="M15.378 26l3.107 3.017L17.702 35c7.161-5.269 5.512-8.817 5.512-8.817M10.11 14.162s-3.514-1.631-8.732 5.45l5.926-.773L10.378 22M6.378 31c12.25-4.9 9.8-9.8 9.8-9.8s-4.9-2.45-9.8 9.8zM35.378 11a16 16 0 0 1-4.749-3.301A16.081 16.081 0 0 1 27.378 3M26.206 16.828a4 4 0 1 1-5.657-5.656 4 4 0 0 1 5.657 5.656z"/>
    </g>
</svg>
