<svg xmlns="http://www.w3.org/2000/svg" width="64" height="60" viewBox="0 0 64 60">
    <g fill="#FFC323" fill-rule="nonzero">
        <path d="M19.045 14c0-1.667-.552-3.083-1.656-4.25C16.283 8.584 14.942 8 13.364 8c-1.579 0-2.92.583-4.025 1.75-1.105 1.167-1.657 2.584-1.657 4.25 0 1.64.552 3.049 1.657 4.23 1.104 1.18 2.446 1.77 4.025 1.77 1.578 0 2.918-.59 4.025-1.77 1.103-1.181 1.656-2.59 1.656-4.23zM30.636 12c1.687 0 3.132-.587 4.334-1.762C36.172 9.063 36.773 7.65 36.773 6c0-1.65-.601-3.063-1.803-4.238C33.77.587 32.324 0 30.636 0c-1.687 0-3.131.587-4.333 1.762C25.1 2.937 24.5 4.35 24.5 6c0 1.65.6 3.063 1.803 4.238C27.504 11.413 28.949 12 30.636 12zM44.955 48.5c0 .962.312 1.787.934 2.471.624.686 1.373 1.029 2.248 1.029.875 0 1.623-.343 2.246-1.029.624-.685.935-1.51.935-2.471 0-.963-.312-1.787-.935-2.472S49.012 45 48.137 45c-.876 0-1.624.343-2.248 1.028-.623.685-.934 1.51-.934 2.472zM54.955 13.5c0-1.797-.666-3.33-1.995-4.598C51.63 7.634 50.022 7 48.137 7c-1.886 0-3.493.634-4.824 1.902-1.33 1.268-1.995 2.801-1.995 4.598 0 1.798.666 3.33 1.995 4.598C44.643 19.366 46.251 20 48.137 20c1.885 0 3.493-.634 4.823-1.902 1.33-1.268 1.995-2.8 1.995-4.598zM33.44 58.98c.707-.681 1.06-1.508 1.06-2.48 0-.973-.353-1.8-1.06-2.48-.707-.68-1.566-1.02-2.577-1.02-1.01 0-1.87.34-2.575 1.02-.708.681-1.06 1.507-1.06 2.48 0 .972.352 1.8 1.06 2.48.706.68 1.565 1.02 2.575 1.02 1.01 0 1.87-.34 2.577-1.02zM17.682 49c0-1.096-.424-2.036-1.272-2.822-.848-.785-1.864-1.178-3.047-1.178-1.182 0-2.197.393-3.046 1.178-.848.786-1.272 1.726-1.272 2.822 0 1.095.425 2.036 1.272 2.821.848.786 1.864 1.179 3.046 1.179 1.183 0 2.198-.393 3.047-1.179.848-.785 1.272-1.726 1.272-2.82zM10.864 31c0-1.38-.49-2.558-1.466-3.535C8.42 26.488 7.244 26 5.863 26c-1.38 0-2.558.488-3.534 1.465C1.352 28.442.864 29.62.864 31c0 1.38.488 2.558 1.465 3.535C3.305 35.512 4.483 36 5.863 36s2.558-.488 3.535-1.465c.976-.977 1.466-2.155 1.466-3.535zM63.136 31.5c0-2.083-.728-3.854-2.187-5.313C59.491 24.73 57.72 24 55.636 24c-2.083 0-3.854.729-5.312 2.187-1.458 1.459-2.188 3.23-2.188 5.313 0 2.085.73 3.855 2.188 5.313C51.782 38.27 53.553 39 55.636 39s3.854-.73 5.313-2.187c1.458-1.458 2.187-3.228 2.187-5.313z"/>
    </g>
</svg>
