<svg xmlns="http://www.w3.org/2000/svg" width="19" height="18" viewBox="0 0 19 18">
    <path fill="#484848" fill-rule="nonzero" d="M18.588 8.157c.374-.36.506-.89.344-1.38a1.35 1.35 0 0 0-1.1-.918l-4.6-.66a.6.6 0 0 1-.453-.326L10.722.75C10.492.288 10.022 0 9.5 0S8.51.288 8.28.75L6.22 4.874a.601.601 0 0 1-.453.325l-4.6.661a1.35 1.35 0 0 0-1.1.918c-.162.491-.03 1.02.344 1.38l3.329 3.209a.592.592 0 0 1 .173.527l-.785 4.53c-.07.399.036.787.297 1.092a1.388 1.388 0 0 0 1.68.328l4.114-2.139a.622.622 0 0 1 .56 0l4.115 2.14a1.373 1.373 0 0 0 1.68-.328c.26-.306.366-.695.296-1.093l-.785-4.53a.591.591 0 0 1 .173-.527l3.329-3.209z"/>
</svg>
