<svg xmlns="http://www.w3.org/2000/svg" width="12" height="11" viewBox="0 0 12 11">
    <path fill="#484848" fill-rule="nonzero" d="M11.74 4.985a.794.794 0 0 0 .217-.844.846.846 0 0 0-.695-.56l-2.905-.404a.379.379 0 0 1-.286-.2L6.77.46A.86.86 0 0 0 6.002 0a.86.86 0 0 0-.772.459l-1.3 2.519a.38.38 0 0 1-.286.199L.738 3.58a.846.846 0 0 0-.695.56.794.794 0 0 0 .217.844l2.103 1.96c.09.085.13.205.11.323l-.497 2.768a.781.781 0 0 0 .188.668.897.897 0 0 0 1.06.2l2.6-1.307a.405.405 0 0 1 .353 0l2.599 1.307a.882.882 0 0 0 1.06-.2.781.781 0 0 0 .188-.668l-.496-2.768a.354.354 0 0 1 .11-.322l2.102-1.961z"/>
</svg>
