<svg xmlns="http://www.w3.org/2000/svg" width="21" height="20" viewBox="0 0 21 20">
    <path fill="#484848" fill-rule="nonzero" d="M19.567 10.627l-9.439-9.426C9.794.867 9.345.583 8.782.35 8.218.117 7.704 0 7.237 0H1.745C1.288 0 .892.167.557.502.223.836.056 1.232.056 1.69v5.492c0 .466.116.98.35 1.544.233.563.516 1.008.85 1.333l9.44 9.453c.325.325.721.488 1.188.488a1.69 1.69 0 0 0 1.201-.488l6.482-6.496c.326-.325.489-.721.489-1.188 0-.457-.163-.858-.489-1.201zM5.475 5.419c-.33.33-.729.495-1.195.495-.466 0-.865-.165-1.195-.495a1.628 1.628 0 0 1-.495-1.195c0-.466.165-.864.495-1.194.33-.33.729-.495 1.195-.495.466 0 .865.165 1.195.495.33.33.495.728.495 1.194 0 .467-.165.865-.495 1.195z"/>
</svg>
