<svg xmlns="http://www.w3.org/2000/svg" width="569" height="392" viewBox="0 0 569 392">
    <g fill="none" fill-rule="evenodd">
        <path fill="#FFF" d="M134 286.683L268.42 366 569 188.63 434.58 109z"/>
        <path fill="#AAD3FF" d="M302.135 31L0 208.683 134.42 288 435 110.317z"/>
        <path fill="#BEF471" d="M507.047 392H313.281L133 287.17 259.56 212 536 374.763 507.047 392z"/>
        <g>
            <path fill="#F9A2A2" d="M162 108l65.213-38L292 108l-64.787 38z"/>
            <path fill="#E05F5F" d="M227 146.212V184l-65-37.788V108z"/>
            <path fill="#E86B6B" d="M227 184l65-37.788V108l-65 38.212z"/>
            <path fill="#6793F4" d="M432.838 13L400 32.125 454.588 64 487 44.875z"/>
            <path fill="#3C64BF" d="M400 173.07V33l55 31.93V205z"/>
            <path fill="#5D83D8" d="M487 185.749L454 205V64.251L487 45z"/>
            <path fill="#C6CEE0" d="M471 166.728V96l95 56.208V222z"/>
            <path fill="#FFF" d="M474 165.554V101l86 51.301V216z"/>
            <path fill="#F0F6FF" d="M471 95.288L565.606 152l3.394-1.36L474.394 94z"/>
            <path fill="#E4EBF4" d="M566 151.275V221l2.625-2.976L569 150z"/>
            <path fill="#1537B5" d="M87 89l.4 38.077L97 133V94.923z"/>
            <path stroke="#1537B5" stroke-linejoin="round" stroke-width="5" d="M87 89l.4 38.077L97 133V94.923z"/>
            <path fill="#8CD38C" d="M402 107l11.556-6.485L414 75l-11.778 6.4z"/>
            <path stroke="#8CD38C" stroke-linejoin="round" stroke-width="5" d="M402 107l11.556-6.485L414 75l-11.778 6.4z"/>
            <path fill="#A0EAA0" d="M369.8 50L359 56.4 402.634 82 414 75.387z"/>
            <path stroke="#A0EAA0" stroke-linecap="round" stroke-linejoin="round" stroke-width="5" d="M369.8 50L359 56.4 402.634 82 414 75.387z"/>
            <path fill="#FFF" d="M359 56v25.5l43 25.5V81.5z"/>
            <path stroke="#A0EAA0" stroke-linecap="round" stroke-linejoin="round" stroke-width="5" d="M359 56v25.5l43 25.5V81.5z"/>
            <path fill="#BDBFC6" d="M133.722 186.918a3.196 3.196 0 1 1-6.392 0V113.82l6.392-3.836v76.72"/>
            <path fill="#FFF" d="M96.865 133.64l64.894-38.224-.129-38.072L96.865 95.28z"/>
            <path stroke="#1A32E2" stroke-linejoin="round" stroke-width="5" d="M96.865 133.64l64.894-38.224-.129-38.072L96.865 95.28z"/>
            <path fill="#1A32E2" d="M150.978 50.95l10.652 6.394L96.865 95.28 86.213 89.31z"/>
            <path stroke="#1A32E2" stroke-linejoin="round" stroke-width="5" d="M150.978 50.95l10.652 6.394L96.865 95.28 86.213 89.31z"/>
            <path fill="#1A32E2" d="M118.74 102.777l2.366-1.326-1.194-6.423-1.172 7.749zm3.177 2.982l-.379-1.94-3.22 1.81-.378 2.42c-.148.945-.273 1.598-.378 1.958-.104.36-.275.608-.513.743-.202.114-.38.054-.535-.18-.155-.233-.232-.554-.232-.961 0-.235.018-.488.054-.76.036-.27.095-.653.178-1.146l2.026-12.313.208-1.271c.081-.494.168-.915.26-1.264.091-.348.212-.654.361-.92.15-.267.334-.46.554-.581.224-.124.41-.134.56-.033.148.1.27.27.361.509.092.238.17.505.232.802.063.297.144.696.241 1.196l2.07 9.91c.161.75.242 1.316.242 1.697 0 .397-.076.805-.23 1.222-.153.418-.337.688-.553.81-.126.072-.235.085-.324.038a.537.537 0 0 1-.227-.27 3.714 3.714 0 0 1-.197-.66c-.07-.307-.131-.58-.181-.816zM126.422 89.87v4.896l3.463-1.93v-4.881c0-.697.073-1.26.219-1.69.146-.429.338-.709.575-.84.242-.133.437-.068.586.194.15.262.225.745.225 1.449v13.405c0 .704-.076 1.273-.228 1.707-.15.434-.345.718-.583.852-.241.137-.434.07-.578-.2-.144-.272-.216-.756-.216-1.453v-5.73l-3.463 1.937v5.747c0 .707-.075 1.278-.227 1.714-.15.435-.346.72-.583.855-.241.136-.434.068-.579-.204-.144-.272-.216-.76-.216-1.46V90.758c0-.7.072-1.265.214-1.694.142-.428.336-.71.581-.845.24-.133.436-.068.586.196.15.264.224.749.224 1.456M134.828 86.148v11.515l1.216-.685c.267-.15.475-.283.626-.4.152-.116.308-.281.47-.496.162-.214.303-.467.422-.756.536-1.272.805-3.092.805-5.46 0-1.67-.119-2.855-.354-3.554-.236-.7-.527-1.068-.872-1.104-.346-.036-.764.082-1.254.354l-1.059.586zm-.621-2.377l2.09-1.153c.544-.3 1.01-.45 1.4-.448.389 0 .742.21 1.059.627.824 1.05 1.237 3.11 1.237 6.182 0 1.014-.042 1.964-.125 2.847-.082.884-.21 1.71-.383 2.48-.173.77-.394 1.496-.665 2.18a8.077 8.077 0 0 1-.696 1.374 4.953 4.953 0 0 1-.814.979c-.29.264-.616.5-.98.705l-2.09 1.183c-.292.165-.512.195-.66.09-.147-.106-.244-.318-.289-.637a9.744 9.744 0 0 1-.067-1.3V86.422c0-.742.077-1.322.232-1.74.155-.417.405-.72.75-.911zM142.872 89.256l2.366-1.325-1.194-6.278-1.172 7.603zm3.177 2.885l-.379-1.896-3.219 1.811-.379 2.375c-.147.927-.273 1.567-.377 1.922-.105.354-.276.599-.514.733-.201.115-.38.058-.535-.169-.154-.227-.232-.54-.232-.94 0-.23.018-.478.054-.744.036-.266.096-.641.178-1.126l2.026-12.085.208-1.247c.081-.485.168-.899.26-1.24.091-.343.212-.645.362-.907a1.46 1.46 0 0 1 .553-.575c.224-.123.41-.136.56-.039.149.098.27.263.361.495.092.232.17.493.232.784.064.29.144.68.241 1.168l2.07 9.683c.161.733.243 1.286.243 1.66 0 .39-.077.79-.23 1.2-.153.41-.338.678-.554.8-.126.072-.234.085-.324.04a.523.523 0 0 1-.227-.26 3.53 3.53 0 0 1-.197-.646c-.07-.3-.131-.566-.181-.797z"/>
            <path fill="#BDBFC6" d="M235.983 81.114a1.705 1.705 0 1 1-3.41 0V42.128l3.41-2.046V81M282.852 107.966a1.705 1.705 0 1 1-3.409 0V68.98l3.41-2.046v40.918"/>
            <path fill="#EA961B" d="M292.013 44.557l-.426 37.935 6.391-3.41v-38.36z"/>
            <path stroke="#EA961B" stroke-linejoin="round" stroke-width="5" d="M292.013 44.557l-.426 37.935 6.391-3.41v-38.36z"/>
            <path fill="#44403B" d="M273.239 136.971c0-3.789-4.83-5.022-10.786-2.755-5.956 2.268-10.785 7.836-10.785 12.436v11.863l21.57-11.773v-9.77z"/>
            <path fill="#FDFAB5" d="M205.304 184.574l86.496-50.722 129.957 76.296-86.496 51.147z"/>
            <path fill="#F4E182" d="M205.304 184.574v25.574l129.957 76.72v-25.573z"/>
            <path fill="#F7E69A" d="M335.26 286.869l86.497-51.148v-25.573l-86.496 51.147z"/>
            <path fill="#FFF" d="M227.035 44.344V6.41L291.8 44.344v38.36z"/>
            <path stroke="#F9A319" stroke-linejoin="round" stroke-width="5" d="M227.035 44.344V6.41L291.8 44.344v38.36z"/>
            <path fill="#E59013" d="M244.214 38.452a5.496 5.496 0 0 1-.218 1.48c-.143.496-.363.94-.664 1.33-.3.39-.68.631-1.142.726-.462.092-1-.025-1.611-.353a6.044 6.044 0 0 1-1.266-.9 6.525 6.525 0 0 1-1.034-1.248 9.858 9.858 0 0 1-.854-1.692 14.73 14.73 0 0 1-.595-1.867 16.326 16.326 0 0 1-.37-2.024 17.946 17.946 0 0 1-.123-2.131c0-1.186.104-2.198.312-3.038.208-.841.507-1.508.897-1.999.39-.494.846-.799 1.37-.916.524-.118 1.082-.046 1.674.218.722.323 1.363.855 1.924 1.599.561.746.988 1.552 1.284 2.416.294.867.44 1.626.435 2.274-.003.357-.078.636-.224.838-.148.203-.324.254-.53.155a1.071 1.071 0 0 1-.517-.529c-.113-.242-.24-.625-.378-1.149-.23-.864-.504-1.555-.82-2.075-.315-.519-.706-.885-1.171-1.1-.74-.34-1.332-.139-1.773.6-.44.737-.662 1.968-.665 3.7-.001 1.156.094 2.166.285 3.032.19.867.463 1.582.815 2.145.352.564.764.97 1.237 1.217.513.267.948.275 1.305.021.358-.254.629-.761.814-1.52.079-.364.175-.643.289-.84.114-.197.296-.232.545-.108.214.106.396.326.547.66.15.335.225.695.222 1.078M247.406 30.857l-.042 4.306c.215-.324.423-.564.625-.718.203-.154.425-.237.67-.247.243-.011.504.049.783.18.42.197.791.531 1.113 1.001.322.471.57 1.055.749 1.75.112.411.186.845.22 1.302.035.458.049.973.042 1.545l-.074 5.68c-.007.594-.088 1.003-.242 1.227-.154.224-.355.269-.603.136-.54-.289-.803-1.029-.789-2.221l.057-4.966c.011-.94-.059-1.703-.21-2.286-.152-.581-.447-.978-.887-1.19-.295-.142-.561-.122-.8.059-.238.181-.42.498-.541.951-.092.39-.144 1.137-.154 2.243l-.037 3.84c-.005.573-.083.972-.232 1.195-.149.223-.353.265-.613.126-.54-.289-.805-1.016-.796-2.183l.102-12.487c.005-.584.08-.989.227-1.216.146-.228.35-.284.609-.168.263.118.468.359.613.722.145.364.215.837.21 1.419M257.227 44.352c-.244.042-.598.038-1.061-.012-.463-.052-.784-.08-.962-.085-.178-.005-.35.075-.514.24-.164.163-.25.466-.256.906-.007.456.081.892.265 1.31.183.419.427.708.731.868.325.17.627.196.906.076.278-.12.486-.355.621-.705.156-.385.244-1.106.262-2.162l.008-.436zm.032 4.467c-.406.364-.797.59-1.172.678-.375.087-.792.008-1.252-.238-.42-.225-.787-.574-1.1-1.048a5.505 5.505 0 0 1-.718-1.622 6.574 6.574 0 0 1-.235-1.82c.011-.815.163-1.438.457-1.87.293-.434.691-.625 1.192-.574.106.009.367.039.784.091.417.05.774.085 1.072.102.298.017.622.018.971.003-.006-.814-.084-1.446-.232-1.897-.15-.45-.468-.793-.956-1.027-.42-.202-.737-.247-.952-.136-.215.112-.401.344-.56.696a7.448 7.448 0 0 1-.332.686c-.064.105-.2.107-.405.005-.185-.091-.344-.278-.475-.56a2.09 2.09 0 0 1-.191-.926c.007-.525.118-.986.33-1.384a1.5 1.5 0 0 1 .981-.773c.442-.117.988-.023 1.638.283.728.342 1.296.768 1.707 1.282.41.514.696 1.156.855 1.927.158.773.227 1.73.206 2.87a358.976 358.976 0 0 1-.077 3.504c-.01.577.03 1.206.12 1.886.091.68.135 1.11.131 1.291-.006.315-.09.56-.253.735-.162.175-.344.209-.544.102-.168-.09-.331-.326-.49-.71a12.7 12.7 0 0 1-.5-1.556zM262.11 48.597l-.054 2.606c-.013.632-.1 1.065-.263 1.298-.162.232-.364.284-.604.156-.236-.127-.427-.39-.572-.788-.146-.399-.214-.908-.201-1.528l.169-8.618c.027-1.392.31-1.96.847-1.708.275.129.47.386.584.77.115.385.171.9.17 1.546.211-.546.424-.934.639-1.163.215-.231.496-.265.844-.101.348.163.681.487 1.001.973.32.486.473 1.003.46 1.552-.008.386-.085.671-.23.855-.144.182-.297.235-.458.157-.061-.03-.205-.171-.434-.426-.23-.255-.432-.425-.61-.51-.242-.118-.442-.093-.6.074-.158.165-.285.464-.38.896-.093.431-.164.965-.21 1.6a47.346 47.346 0 0 0-.097 2.359M267.686 44.793l-.227 9.246c-.015.64-.106 1.083-.27 1.328-.164.245-.365.303-.606.174-.24-.128-.43-.4-.573-.813-.142-.413-.206-.93-.191-1.55l.212-9.084c.015-.628.101-1.065.26-1.312.16-.246.36-.313.603-.2.243.115.439.369.588.763.15.394.218.877.204 1.448m-.738-3.685c-.23-.106-.425-.333-.583-.68-.157-.348-.23-.77-.218-1.265.01-.45.103-.783.278-.998.175-.216.374-.274.597-.174.215.097.403.314.562.654.16.34.234.765.221 1.272-.011.493-.102.84-.27 1.043-.17.202-.365.251-.587.148M269.524 44.106l.182.086.05-1.94c.013-.52.03-.924.053-1.214.021-.289.067-.525.138-.709.07-.191.168-.329.294-.412a.403.403 0 0 1 .412-.025c.211.095.397.335.56.721.108.258.173.542.195.854.023.312.026.741.012 1.29l-.06 2.215.606.286c.234.11.41.304.527.582.117.278.171.589.162.932-.013.44-.109.705-.289.796-.18.091-.434.058-.76-.1l-.309-.149-.161 5.98a19.74 19.74 0 0 0-.005 1.188c.01.283.053.53.126.742a.777.777 0 0 0 .375.456c.097.05.227.084.394.102.166.018.295.05.387.099.133.069.25.237.35.505.1.267.145.557.137.87-.015.528-.17.856-.467.983-.295.126-.713.044-1.253-.245a2.71 2.71 0 0 1-1.151-1.132c-.255-.48-.416-1.042-.483-1.684-.066-.643-.086-1.465-.06-2.465l.16-6.196-.219-.106c-.237-.115-.416-.313-.536-.593a2.187 2.187 0 0 1-.166-.926c.009-.337.08-.583.218-.737.137-.154.33-.172.58-.054"/>
            <path fill="#E59013" d="M274.953 60.436l.172-.66-1.728-11.248c-.109-.645-.16-1.1-.152-1.364.008-.28.051-.524.131-.73.08-.206.185-.35.316-.435a.394.394 0 0 1 .403-.03c.24.111.414.347.527.706.112.36.206.844.283 1.453l1.152 8.854 1.554-6.974c.124-.57.234-1.012.33-1.323.096-.311.193-.507.292-.584.099-.079.235-.077.409.005.125.059.243.183.354.373.11.19.193.415.249.674.055.26.08.518.07.772-.02.15-.054.359-.1.63-.045.27-.098.54-.16.81l-2.5 10.34c-.215.902-.418 1.589-.61 2.061-.193.471-.439.779-.737.922-.298.142-.691.077-1.182-.197-.478-.267-.834-.572-1.067-.914-.234-.342-.342-.788-.327-1.34.01-.377.075-.636.195-.778.12-.142.291-.152.515-.03a.955.955 0 0 1 .255.213c.103.105.192.178.268.22.188.102.337.127.447.073.112-.054.214-.197.309-.429.093-.232.205-.589.332-1.07"/>
            <path fill="#F9A319" d="M231.935 3.213l-5.113 2.984 65.191 38.36 5.965-3.836z"/>
            <path stroke="#F9A319" stroke-linejoin="round" stroke-width="5" d="M231.935 3.213l-5.113 2.984 65.191 38.36 5.965-3.836z"/>
            <path stroke="#AA6037" stroke-linecap="round" stroke-linejoin="round" stroke-width="5" d="M334.893 226.66l16.133-37.242 8.066 51.208"/>
            <path fill="#FFF" d="M326.981 203.538l7.04 43.856 23.896-14.227-7.047-43.905z"/>
            <path stroke="#AA6037" stroke-linecap="round" stroke-linejoin="round" stroke-width="5" d="M311.003 240.936l16.133-37.242 8.067 51.208"/>
            <path fill="#C1C1C1" d="M329.975 228.68l-3.265-20.724-13.167 30.397z"/>
            <path fill="#C61212" d="M344.765 223.412a26.459 26.459 0 0 1-3.88-1.723c-.992-.493-2-.957-2.254-2.195-.314-1.535.664-3.421 2.184-4.213 1.52-.792 2.928-.037 3.143 1.686-.215-1.723.842-3.76 2.362-4.553 1.52-.791 2.848.116 2.965 2.026.095 1.541-.68 2.943-1.44 4.308a35.947 35.947 0 0 1-3.08 4.664"/>
            <path stroke="#C61212" stroke-width="5" d="M344.765 223.412a26.459 26.459 0 0 1-3.88-1.723c-.992-.493-2-.957-2.254-2.195-.314-1.535.664-3.421 2.184-4.213 1.52-.792 2.928-.037 3.143 1.686-.215-1.723.842-3.76 2.362-4.553 1.52-.791 2.848.116 2.965 2.026.095 1.541-.68 2.943-1.44 4.308a35.947 35.947 0 0 1-3.08 4.664z"/>
            <path fill="#428942" d="M368.175 69.93l-2.961-1.37-.019 3.138 2.476 1.204c.229.112.4.282.513.511.111.23.166.49.165.78-.002.292-.06.495-.176.61-.116.113-.287.113-.513 0l-2.476-1.239-.023 4.04c-.003.513-.076.855-.217 1.027-.142.172-.322.198-.541.08-.224-.122-.404-.345-.542-.668-.14-.324-.206-.736-.204-1.238l.055-9.327c.003-.354.036-.627.101-.822.066-.195.167-.312.305-.354.137-.04.312-.014.524.081l3.544 1.586c.24.108.418.278.533.51.115.234.172.497.17.789 0 .298-.06.51-.178.638-.117.127-.296.134-.536.023M370.468 71.209c-.193-.09-.357-.267-.492-.533-.136-.266-.203-.583-.2-.952.002-.335.073-.58.214-.733.141-.154.305-.19.49-.107.18.08.338.25.475.51.137.261.205.58.202.96-.002.367-.07.624-.206.768-.137.144-.297.173-.483.087m.669 2.785l-.038 6.9c-.003.477-.07.803-.204.976-.133.173-.3.204-.503.094-.202-.11-.366-.324-.492-.641-.124-.316-.186-.705-.183-1.167l.038-6.76c.003-.468.068-.79.196-.966.128-.178.293-.219.495-.123.203.096.37.294.5.596.13.301.193.665.19 1.09M372.647 73.562l.152.072.008-1.453a17 17 0 0 1 .023-.909c.013-.215.047-.391.102-.526a.555.555 0 0 1 .235-.298c.101-.058.215-.06.34-.003.175.08.334.266.474.563.094.197.152.413.177.649.024.235.034.558.032.97l-.009 1.663.507.24a.936.936 0 0 1 .447.462c.101.214.152.45.15.709-.001.33-.076.526-.224.587-.147.06-.358.023-.63-.11l-.26-.126-.024 4.488c-.002.38.004.678.018.892.014.213.054.402.12.565a.68.68 0 0 0 .32.363c.08.043.19.076.328.098.14.023.247.055.325.096.112.06.211.192.3.4.089.207.133.428.131.663-.002.397-.125.635-.37.715-.244.077-.593-.009-1.049-.257-.432-.235-.759-.54-.98-.916a3.43 3.43 0 0 1-.432-1.292c-.067-.485-.098-1.103-.095-1.851l.026-4.638-.182-.09a.966.966 0 0 1-.454-.468 1.583 1.583 0 0 1-.154-.7c.002-.254.058-.434.169-.544.11-.11.27-.114.48-.014M377.491 77.03l-.001.302c.245-.462.514-.761.804-.896.29-.135.623-.115.998.063.364.173.689.474.974.903.285.43.498.949.637 1.554.09.357.146.724.171 1.1.025.376.037.846.034 1.409l-.025 4.767c-.003.513-.068.866-.196 1.06-.128.193-.293.234-.496.124-.206-.113-.372-.338-.5-.674-.126-.336-.188-.752-.185-1.248l.022-4.23c.005-.836-.056-1.507-.18-2.013-.124-.504-.375-.849-.753-1.033-.247-.121-.472-.097-.676.07-.204.167-.354.46-.451.877-.07.339-.107 1.018-.113 2.037l-.016 3.132c-.003.506-.07.851-.201 1.034-.132.182-.3.216-.506.104-.2-.109-.362-.328-.489-.658s-.19-.736-.187-1.22l.039-7.155c.003-.471.062-.796.178-.974.116-.179.274-.221.473-.127.122.058.23.162.328.312.097.15.175.342.233.578.058.236.086.503.084.803M383.637 83.036l2.506 1.269c-.029-.923-.153-1.664-.372-2.223-.219-.556-.509-.923-.87-1.1-.344-.167-.628-.08-.851.262-.224.34-.361.937-.413 1.792m2.696 2.876l-2.704-1.396c0 .593.061 1.148.182 1.665.121.517.283.946.486 1.284.203.34.428.576.675.708a.974.974 0 0 0 .453.132.707.707 0 0 0 .4-.137c.128-.09.247-.196.356-.32.11-.124.25-.297.424-.517.072-.08.173-.086.305-.016.142.074.256.209.343.405.087.196.13.431.129.705a2.265 2.265 0 0 1-.151.768c-.1.27-.25.5-.448.689a1.24 1.24 0 0 1-.748.329c-.3.03-.644-.06-1.032-.273-.888-.486-1.576-1.34-2.063-2.558-.488-1.212-.728-2.626-.72-4.246.004-.763.069-1.44.193-2.032.125-.594.305-1.068.54-1.423.236-.356.525-.578.867-.667.342-.088.72-.035 1.136.163.54.257 1.002.696 1.387 1.318a7.22 7.22 0 0 1 .86 2.124c.188.793.28 1.552.277 2.277-.003.672-.105 1.057-.305 1.153-.2.096-.48.05-.842-.135M393.08 90.736c-.003.764-.099 1.37-.287 1.814-.188.443-.465.705-.829.786-.364.08-.806-.023-1.326-.309a3.825 3.825 0 0 1-1.273-1.146 5.36 5.36 0 0 1-.78-1.537c-.166-.535-.249-1.024-.246-1.471.001-.295.057-.52.166-.673.109-.154.246-.188.412-.101a.744.744 0 0 1 .333.382c.076.18.15.414.22.702.139.558.307 1.01.503 1.354.197.345.465.61.805.792.277.15.505.15.683 0 .179-.15.269-.383.27-.698.003-.483-.088-.884-.27-1.202-.184-.317-.485-.685-.906-1.105-.475-.479-.86-.922-1.158-1.33a5.269 5.269 0 0 1-.712-1.371 4.919 4.919 0 0 1-.26-1.663c.002-.539.087-1.008.255-1.407.168-.4.414-.666.737-.798.324-.134.714-.092 1.17.126.357.17.678.398.962.68.285.286.522.599.711.94.19.34.334.689.432 1.04.098.353.147.675.145.966-.001.318-.056.55-.163.7-.108.15-.259.175-.455.077-.141-.071-.262-.212-.36-.424a8.282 8.282 0 0 1-.339-.893 3.834 3.834 0 0 0-.367-.826 1.372 1.372 0 0 0-.575-.522c-.25-.122-.458-.119-.624.01-.167.127-.251.346-.253.657a1.74 1.74 0 0 0 .18.792c.12.243.283.476.489.7.204.223.487.512.848.87.427.424.776.85 1.047 1.279.27.428.474.877.612 1.345.138.468.206.956.204 1.464M398.7 93.699c-.003.792-.099 1.42-.287 1.884-.189.462-.465.738-.829.828-.364.09-.807-.01-1.326-.295a3.778 3.778 0 0 1-1.274-1.164 5.51 5.51 0 0 1-.78-1.579c-.165-.551-.248-1.057-.246-1.52.002-.306.057-.54.166-.701.11-.161.247-.198.412-.112a.743.743 0 0 1 .333.391c.077.184.15.425.22.723.14.576.307 1.04.503 1.394.197.354.465.622.806.806.277.15.505.145.683-.012.178-.159.269-.402.27-.728.003-.5-.088-.914-.271-1.24-.183-.325-.484-.701-.906-1.129a11.85 11.85 0 0 1-1.158-1.359 5.223 5.223 0 0 1-.973-3.127c.003-.558.088-1.045.256-1.462.168-.417.414-.698.738-.84.323-.143.713-.106 1.17.112.357.172.678.402.962.692.285.29.522.61.711.96.19.35.333.708.431 1.071.098.364.147.696.146.997-.002.33-.057.571-.164.728-.107.157-.258.185-.454.087-.142-.071-.262-.216-.361-.432a8.632 8.632 0 0 1-.338-.92 3.966 3.966 0 0 0-.367-.85 1.35 1.35 0 0 0-.576-.532c-.25-.122-.457-.115-.624.02-.166.135-.25.364-.252.686-.002.296.058.568.179.817.12.25.283.489.49.717.204.228.487.524.848.887.427.432.776.869 1.046 1.308a5.358 5.358 0 0 1 .816 2.895"/>
            <path fill="#000" d="M182.104 282.93l-4.753-.523c-.654-.072-1.256.336-1.339.907l-.072.499c-.082.57.386 1.097 1.04 1.168l5.503.606c.24.027.463-.124.493-.334l.167-1.155c.082-.57-.386-1.096-1.04-1.168M191.25 282.93l-4.753-.523c-.653-.072-1.256.336-1.338.907l-.072.499c-.082.57.385 1.097 1.039 1.168l5.503.606c.241.027.463-.124.493-.334l.166-1.155c.083-.57-.385-1.096-1.038-1.168"/>
            <path fill="#313B3A" d="M173.989 256.725s1.96 22.252 2.613 26.246h3.266l3.267-15.406 2.613 15.406h2.613s3.266-17.688 2.613-26.817l-16.985.57z"/>
            <path fill="#AAE6FA" d="M168.955 230.888s1.135-.495 2.269 1.487c1.135 1.982 7.374 6.935 13.046 7.43 5.673.496 9.36-1.238 12.195-3.715 2.837-2.477 6.808-4.458 7.375-3.963.567.495.567.99-1.702 3.963-2.27 2.973-9.643 8.918-10.21 10.899-.567 1.982-.567 9.908-.567 9.908s-14.748 1.487-18.152-.99c0 0 1.702-13.872 0-16.349-1.701-2.477-6.806-7.926-4.254-8.67"/>
            <path fill="#FFE0B8" d="M190.13 234.66a5.331 5.331 0 1 1-5.33-5.332 5.331 5.331 0 0 1 5.33 5.332"/>
            <path fill="#5B3C1A" d="M188.192 236.275a.808.808 0 0 0 0-1.615h-.162v-1.939h-8.197a5.332 5.332 0 1 1 8.197 6.18v-2.626"/>
            <path fill="#FFE0B8" d="M169.786 230.04a1.628 1.628 0 1 1-3.256 0 1.628 1.628 0 0 1 3.256 0M206.325 231.125a1.629 1.629 0 1 1-3.257 0 1.629 1.629 0 0 1 3.257 0"/>
            <path fill="#000" d="M456.845 286.174l-5.048-.555c-.695-.077-1.334.357-1.422.963l-.076.53c-.087.607.41 1.166 1.104 1.241l5.844.644c.256.028.492-.132.524-.355l.177-1.227c.088-.606-.409-1.164-1.103-1.24M466.558 286.174l-5.047-.555c-.695-.077-1.334.357-1.422.963l-.076.53c-.087.607.409 1.166 1.104 1.241l5.844.644c.256.028.492-.132.524-.355l.177-1.227c.087-.606-.41-1.164-1.103-1.24"/>
            <path fill="#313B3A" d="M448.226 258.343s2.081 23.633 2.775 27.875h3.47l3.469-16.361 2.775 16.361h2.776s3.469-18.786 2.775-28.481l-18.04.606z"/>
            <path fill="#F8A055" d="M435.585 257.866s7.591-22.402 18.219-22.022c10.627.38 12.525 3.037 16.32 9.872 0 0 3.796-5.316 5.694-4.936 1.898.38-1.138 7.973-4.175 11.77-3.036 3.797-5.504-4.367-5.504-4.367l1.139 10.632s-14.803 1.519-20.496-1.519l-.38-6.834s-11.386 14.048-10.817 7.404"/>
            <path fill="#FFE0B8" d="M462.154 229.579a6.264 6.264 0 1 1-12.525 0 6.264 6.264 0 1 1 12.525 0"/>
            <path fill="#5B3C1A" d="M462.302 229.2c-.409-3.437-2.803-6.265-6.262-6.265a6.266 6.266 0 0 0-5.882 4.107s8.538 4.056 6.26 16.965l4.556.76s2.278-7.594 1.328-15.568"/>
            <path fill="#FFE0B8" d="M437.103 259.574a1.709 1.709 0 1 1-3.417 0 1.709 1.709 0 0 1 3.417 0M478.096 239.83a1.709 1.709 0 1 1-3.417 0 1.709 1.709 0 0 1 3.417 0M225.495 156.233a5.331 5.331 0 1 1-5.33-5.331 5.33 5.33 0 0 1 5.33 5.331"/>
            <path fill="#5B3C1A" d="M223.557 157.85a.808.808 0 0 0 0-1.617h-.161v-1.938h-8.198a5.331 5.331 0 1 1 8.198 6.18v-2.626"/>
            <path fill="#FFE0B8" d="M282.165 190.332a5.331 5.331 0 1 1-5.33-5.332 5.331 5.331 0 0 1 5.33 5.332"/>
            <path fill="#5B3C1A" d="M280.227 191.947a.808.808 0 0 0 0-1.615h-.162v-1.939h-8.197a5.332 5.332 0 1 1 8.197 6.18v-2.626"/>
            <path fill="#6CD86F" d="M209.565 166.672s3.835-5.967 10.652-5.115c6.818.853 9.374 7.673 8.948 16.197l-19.6-11.082z"/>
            <path fill="#F8A055" d="M265.383 200.77s3.834-5.967 10.652-5.114c6.817.852 9.374 7.672 8.948 16.196l-19.6-11.082z"/>
            <path fill="#FFF" d="M199.765 159v38.36l86.496 51.148v-38.36z"/>
            <path fill="#9934E8" d="M213.831 189.758c-.004.315-.068.62-.193.917a1.83 1.83 0 0 1-.584.75c-.263.202-.597.296-1.003.283-.406-.014-.876-.177-1.412-.488a6.944 6.944 0 0 1-1.107-.789 6.253 6.253 0 0 1-.901-.98 7.609 7.609 0 0 1-.739-1.247 9.533 9.533 0 0 1-.906-4.15c.009-.784.107-1.434.295-1.951.188-.519.453-.905.795-1.158a1.81 1.81 0 0 1 1.195-.35c.454.02.937.171 1.449.456a5.765 5.765 0 0 1 1.66 1.402c.483.59.851 1.192 1.105 1.806.253.614.377 1.131.372 1.55-.002.228-.068.395-.196.5-.128.104-.282.105-.46.004a1.13 1.13 0 0 1-.448-.435 4.926 4.926 0 0 1-.325-.814c-.198-.601-.433-1.101-.704-1.497a2.99 2.99 0 0 0-1.013-.93c-.641-.359-1.155-.336-1.543.07-.388.404-.588 1.174-.602 2.31-.009.76.067 1.439.23 2.04.161.6.395 1.113.7 1.539.305.426.664.76 1.078.997.448.258.83.335 1.143.229.313-.106.552-.39.717-.85.069-.221.154-.387.254-.494.1-.108.259-.1.476.024.186.106.344.28.475.522.13.242.195.487.192.734M218.833 194.914l.003-.24a1.672 1.672 0 0 1-.55.397c-.19.082-.4.104-.625.067-.226-.037-.482-.14-.77-.306a3.3 3.3 0 0 1-.929-.818 3.96 3.96 0 0 1-.628-1.135c-.174-.495-.257-1.11-.248-1.845l.044-3.658c.004-.37.072-.61.204-.72.132-.109.305-.104.519.016.216.123.39.314.522.574.13.26.194.574.19.94l-.036 2.966c-.005.43.019.806.07 1.13.054.324.151.61.295.859.143.25.34.445.588.589.242.14.47.178.686.115.216-.063.375-.217.477-.46.083-.218.13-.771.141-1.663l.027-2.265c.005-.368.074-.608.21-.72.135-.11.31-.106.523.014.214.12.384.31.512.566.127.258.189.575.185.949l-.065 5.412c-.004.355-.07.587-.196.692-.127.106-.288.101-.484-.012-.196-.115-.357-.3-.483-.558a1.94 1.94 0 0 1-.182-.886M221.608 196.435l.096-8.13c.004-.374.072-.622.202-.743.13-.122.304-.122.52 0 .218.12.392.313.523.578.13.264.194.587.19.968l-.097 8.156c-.004.381-.075.628-.212.74-.137.112-.312.106-.526-.018-.21-.122-.38-.32-.509-.592a2.155 2.155 0 0 1-.187-.96M224.678 191.807l.158.089.013-1.135c.003-.304.013-.54.027-.705a.875.875 0 0 1 .107-.389.36.36 0 0 1 .246-.18.51.51 0 0 1 .353.075c.182.102.346.284.49.546.098.175.159.357.182.545.024.188.035.442.031.76l-.015 1.291.526.297a1.18 1.18 0 0 1 .617 1.035c-.003.254-.081.39-.235.405-.154.016-.372-.057-.656-.218l-.268-.152-.04 3.483c-.004.296 0 .528.015.696.014.17.054.323.122.462.067.14.177.253.331.342.084.048.199.095.343.138.144.044.256.088.337.135.115.067.218.189.31.365.091.177.136.355.134.537-.004.306-.133.466-.386.483-.255.016-.618-.114-1.091-.39-.448-.26-.787-.555-1.016-.888a2.71 2.71 0 0 1-.445-1.086c-.068-.392-.098-.881-.091-1.467l.042-3.623-.188-.107a1.207 1.207 0 0 1-.628-1.043c.002-.199.06-.329.176-.391.116-.062.282-.033.499.09M232.058 202.563l.003-.246c-.175.192-.358.33-.55.417-.19.087-.4.114-.624.08-.226-.035-.482-.136-.77-.303a3.259 3.259 0 0 1-.929-.828 4.03 4.03 0 0 1-.63-1.16c-.173-.507-.255-1.14-.247-1.896l.044-3.771c.004-.381.073-.63.204-.745.132-.115.305-.112.519.008.217.123.391.317.522.583.13.266.194.589.19.966l-.036 3.056c-.005.443.019.83.072 1.163a2.6 2.6 0 0 0 .293.881c.143.255.34.454.589.597.24.14.47.176.686.108.216-.07.374-.23.476-.483.084-.225.13-.796.142-1.715l.027-2.333c.004-.38.074-.628.209-.745.135-.117.31-.115.524.005.213.12.384.313.511.576.128.263.19.589.185.974l-.064 5.576c-.005.367-.07.606-.196.717-.127.11-.289.109-.484-.005-.197-.115-.358-.303-.483-.567a2.037 2.037 0 0 1-.183-.91M236.276 203.292l-.019 1.618c-.004.393-.076.647-.215.765-.138.115-.313.113-.523-.01-.207-.12-.376-.317-.507-.593-.13-.276-.194-.607-.189-.993l.061-5.376c.01-.867.248-1.17.714-.906.239.134.409.333.512.595.103.263.157.596.163 1 .176-.3.355-.502.539-.603.182-.102.424-.068.725.102.301.17.593.437.875.802.28.364.42.716.416 1.054-.003.237-.065.4-.189.486-.122.086-.253.088-.393.008-.053-.03-.18-.145-.38-.348a2.6 2.6 0 0 0-.532-.435c-.21-.12-.382-.142-.517-.068-.135.073-.241.236-.318.487-.077.252-.131.571-.164.96-.033.388-.052.874-.059 1.455M240.516 203.939l2.6 1.488c-.026-.692-.153-1.27-.379-1.734-.225-.464-.526-.803-.9-1.015-.358-.204-.653-.202-.886.005-.233.207-.378.625-.435 1.256m2.793 2.723l-2.805-1.613c-.002.446.059.875.183 1.288.123.413.29.767.5 1.062.211.295.444.516.7.665.171.099.328.162.47.19.143.026.281.02.416-.02.134-.042.258-.096.372-.166.114-.07.261-.169.443-.296.074-.044.18-.026.316.052a.939.939 0 0 1 .356.372 1.084 1.084 0 0 1-.029 1.084c-.104.18-.26.32-.467.42-.207.1-.467.131-.778.095-.312-.037-.67-.173-1.072-.408-.921-.536-1.634-1.31-2.137-2.323-.503-1.01-.748-2.126-.734-3.35.006-.576.075-1.074.207-1.495.132-.42.32-.74.566-.955.246-.215.547-.318.903-.307.356.012.749.139 1.18.382.56.317 1.04.75 1.437 1.302.397.55.693 1.141.887 1.77.194.629.288 1.21.282 1.745-.006.496-.113.758-.321.787-.209.028-.5-.066-.875-.281M251.378 207.708c.36-.116.622-.236.784-.364.161-.127.244-.347.247-.655a1.847 1.847 0 0 0-.23-.899c-.157-.295-.357-.51-.598-.647-.243-.136-.446-.144-.61-.025-.166.118-.25.319-.253.602a1.84 1.84 0 0 0 .086.524c.06.203.134.413.223.63.09.219.206.496.35.834m-.558 1.702c-.36.084-.63.219-.81.405-.18.186-.273.476-.277.87-.003.225.027.458.09.7.062.241.155.487.277.734.123.248.266.465.43.653.163.189.336.336.518.442.179.103.353.165.521.184.17.02.33 0 .482-.057.152-.058.31-.147.474-.27a31.885 31.885 0 0 1-.828-1.678c-.244-.537-.537-1.198-.877-1.983m-1.448-4.348c.006-.452.095-.817.269-1.094a.97.97 0 0 1 .758-.469c.332-.035.72.072 1.166.32a3.77 3.77 0 0 1 1.14.987c.32.412.558.849.714 1.311.154.463.23.896.225 1.299-.005.55-.14.956-.404 1.216s-.65.457-1.16.59c.173.39.333.755.48 1.096.148.34.291.662.429.963.138.301.263.564.377.787.054-.107.139-.318.253-.633.114-.315.22-.529.319-.641.098-.111.235-.118.41-.018.164.094.31.26.433.497.125.237.186.473.183.71-.003.217-.06.492-.173.827a5.775 5.775 0 0 1-.487 1.045c.127.232.33.59.61 1.072.278.485.449.803.512.956a1.3 1.3 0 0 1 .092.52c-.003.256-.07.434-.204.532-.133.098-.28.1-.442.006-.164-.096-.323-.263-.475-.5-.153-.237-.476-.79-.97-1.655-.232.167-.47.275-.716.324-.245.05-.508.04-.787-.03a3.652 3.652 0 0 1-.935-.404 4.984 4.984 0 0 1-1.176-.954 5.796 5.796 0 0 1-.861-1.225 5.882 5.882 0 0 1-.505-1.301 4.806 4.806 0 0 1-.155-1.215c.004-.365.05-.674.137-.93.087-.255.208-.462.364-.62.155-.159.345-.285.57-.38.225-.095.485-.162.782-.205a15.89 15.89 0 0 1-.583-1.562 4.084 4.084 0 0 1-.19-1.222M261.205 216.133l2.3 1.323-1.11-5.208-1.19 3.885zm3.056 4.843l-.353-1.599-3.132-1.81-.382 1.192c-.15.464-.277.762-.38.895-.104.131-.272.13-.503-.005-.196-.114-.368-.317-.517-.609-.148-.29-.22-.566-.218-.824.002-.15.021-.293.058-.431.036-.14.097-.327.18-.562l2.048-5.984.21-.624c.082-.243.169-.434.26-.574a.586.586 0 0 1 .357-.263c.147-.036.327.006.541.126.217.122.397.282.542.481.144.199.26.417.347.653.087.236.16.477.22.725.058.247.133.577.224.986l1.935 8.287c.152.636.227 1.078.224 1.325-.002.256-.08.449-.23.576-.152.127-.332.13-.543.006a1.072 1.072 0 0 1-.314-.278 1.644 1.644 0 0 1-.218-.386 4.654 4.654 0 0 1-.186-.61 54.675 54.675 0 0 1-.17-.693zM268.413 221.838l-.019 1.733c-.004.421-.076.696-.215.827-.139.13-.313.133-.523.01-.207-.12-.376-.325-.507-.616-.13-.29-.194-.642-.19-1.056l.062-5.76c.01-.93.248-1.262.714-.997.238.135.409.34.512.618.103.278.157.632.163 1.064.176-.328.355-.55.538-.665.183-.116.425-.088.726.083.301.17.593.446.874.825.281.38.42.752.416 1.114-.003.254-.065.43-.187.526-.123.097-.255.104-.394.025-.053-.03-.18-.15-.38-.359a2.51 2.51 0 0 0-.532-.446c-.21-.12-.383-.138-.517-.054-.135.083-.241.262-.318.534a5.41 5.41 0 0 0-.164 1.034c-.033.416-.053.937-.06 1.56M271.969 218.566l.157.09.013-1.257c.004-.337.013-.598.027-.783.014-.185.05-.33.108-.436a.397.397 0 0 1 .246-.213c.105-.03.223-.01.353.064.182.102.346.295.49.576.097.19.158.387.182.593.024.208.034.487.03.841l-.015 1.429.526.298c.203.116.357.274.463.476.105.203.157.414.155.635-.003.282-.082.436-.236.462-.153.025-.371-.043-.655-.205l-.268-.153-.04 3.857c-.004.327 0 .584.015.77.014.185.054.353.121.503a.78.78 0 0 0 .332.36c.084.048.199.093.343.133a1.5 1.5 0 0 1 .337.13c.115.067.218.196.31.386.09.19.136.385.134.586-.004.339-.133.524-.386.556-.255.032-.618-.09-1.092-.367-.448-.262-.786-.57-1.015-.925a3.012 3.012 0 0 1-.445-1.178c-.068-.43-.098-.969-.092-1.617l.043-4.013-.189-.108a1.177 1.177 0 0 1-.47-.484 1.322 1.322 0 0 1-.158-.636c.003-.22.061-.367.177-.442.115-.076.281-.052.499.072"/>
            <path fill="#FFE0B8" d="M212.395 164.827a1.629 1.629 0 1 1-3.257 0 1.629 1.629 0 0 1 3.257 0M226.03 172.925a1.629 1.629 0 1 1-3.257 0 1.629 1.629 0 0 1 3.257 0M269.065 198.499a1.628 1.628 0 1 1-3.257 0 1.628 1.628 0 0 1 3.257 0M283.126 206.597a1.628 1.628 0 1 1-3.257 0 1.628 1.628 0 0 1 3.257 0"/>
            <path fill="#E56767" d="M503.505 149.697l-.373 18.227c.041 1.218 1.042 2.859 2.237 3.665 1.195.807 2.136.473 2.103-.746l-1.52-19.548v.002c2.473 1.071 4.282.083 4.222-2.549l-.15-6.623-.038-1.655-2.269-1.45.2 7.724-2.246-1.452-.222-7.723-2.27-1.45.247 7.72-2.245-1.452-.27-7.718-2.268-1.45.062 1.653.251 6.614c.1 2.627 2.043 6.037 4.548 8.213M522.099 161.837l1.104 19.587c.006 1.222-.957 1.558-2.152.752-1.194-.806-2.174-2.45-2.188-3.67l.789-18.267.001-.005c-2.806-2.49-4.962-6.763-5.02-10.238-.066-3.964 2.676-5.393 6.124-3.191 3.447 2.202 6.243 7.207 6.243 11.178 0 3.475-2.101 5.003-4.89 3.852"/>
            <path fill="#E23D3D" d="M480.557 109.557c0 1.177-.573 2.132-1.279 2.132s-1.278-.955-1.278-2.132c0-1.176.572-2.13 1.278-2.13.706 0 1.279.954 1.279 2.13"/>
            <path fill="#F7D21C" d="M484.817 112.115c0 1.177-.572 2.13-1.278 2.13-.706 0-1.278-.953-1.278-2.13s.572-2.131 1.278-2.131c.706 0 1.278.954 1.278 2.13"/>
            <path fill="#32E21E" d="M489.504 114.672c0 1.177-.572 2.131-1.278 2.131-.706 0-1.278-.954-1.278-2.13 0-1.178.572-2.132 1.278-2.132.706 0 1.278.954 1.278 2.131"/>
            <path stroke="#000" stroke-linecap="round" stroke-linejoin="round" stroke-width="5" d="M326.526 182.656l-10.652-70.328-11.078 57.54"/>
            <path stroke="#000" stroke-linecap="round" stroke-linejoin="round" stroke-width="5" d="M337.604 175.836l-10.652-70.328-11.078 57.541M315.874 112.328l11.078-6.82M317.66 124.118l11.12-6.546M319.433 135.825l11.12-6.546M321.206 147.532c.207.173 11.12-6.546 11.12-6.546M323.057 159.753l11.042-7.06M324.752 170.945l11.12-6.545M314.251 121.56l10.254-6.036M312.19 133.267l10.591-6.234M309.696 144.727c.2.167 10.7-6.298 10.7-6.298M307.376 156.869l10.532-6.733"/>
            <path fill="#000" d="M326.546 131.385l4.407-.485c.606-.066 1.165.312 1.241.842l.067.462c.076.53-.357 1.017-.964 1.084l-5.103.562c-.224.024-.429-.115-.457-.31l-.155-1.071c-.076-.53.358-1.017.964-1.084M318.065 131.385l4.407-.485c.606-.066 1.164.312 1.24.842l.067.462c.077.53-.357 1.017-.963 1.084l-5.103.562c-.224.024-.43-.115-.457-.31l-.155-1.071c-.076-.53.357-1.017.964-1.084"/>
            <path fill="#313B3A" d="M334.07 107.085s-1.816 20.635-2.422 24.339h-3.03l-3.028-14.286-2.424 14.286h-2.423s-3.029-16.402-2.423-24.868l15.75.53z"/>
            <path fill="#B157F7" d="M345.108 106.668s-6.628-19.559-15.907-19.227c-9.28.331-10.936 2.652-14.25 8.62 0 0-3.314-4.642-4.971-4.31-1.657.331.994 6.961 3.645 10.276 2.651 3.315 4.806-3.812 4.806-3.812l-.994 9.282s12.924 1.326 17.895-1.326l.331-5.967s9.942 12.266 9.445 6.464"/>
            <path fill="#FFE0B8" d="M343.783 108.16a1.492 1.492 0 1 0 2.983 0 1.492 1.492 0 0 0-2.983 0M307.991 90.922a1.492 1.492 0 1 0 2.983 0 1.492 1.492 0 0 0-2.983 0M320.93 82.496a5.331 5.331 0 1 0 5.33-5.332 5.33 5.33 0 0 0-5.33 5.332"/>
            <path fill="#5B3C1A" d="M322.869 84.112a.808.808 0 0 1 0-1.616h.161v-1.94h8.198a5.331 5.331 0 1 0-8.198 6.181v-2.625"/>
            <path stroke="#666" stroke-linecap="round" stroke-width="5" d="M308.843 60.967v28.131"/>
            <path fill="#FFF" d="M307.352 61.607l-21.73 12.786v15.345l21.73-12.787z"/>
            <path stroke="#F7F706" stroke-linejoin="round" stroke-width="5" d="M307.352 61.607l-21.73 12.786v15.345l21.73-12.787z"/>
            <path fill="#D3CE16" d="M294.237 73.723l-2.02 1.214v2.311l1.689-1.02c.156-.094.272-.102.35-.023.077.078.115.222.115.431s-.039.399-.117.569a.88.88 0 0 1-.348.395l-1.688 1.022v2.975c0 .378-.048.688-.143.929-.096.24-.218.407-.368.498-.152.092-.275.075-.371-.052-.095-.127-.143-.377-.143-.752v-6.956c0-.263.022-.491.066-.684.043-.192.111-.355.205-.486.093-.133.212-.242.357-.33l2.416-1.45c.163-.098.284-.106.364-.024.08.08.119.226.119.435 0 .213-.04.408-.12.585a.898.898 0 0 1-.363.413M297.863 78.33v-.215c-.112.322-.23.606-.355.854-.124.246-.26.457-.407.63a2.07 2.07 0 0 1-.504.433c-.228.139-.432.18-.612.121-.18-.057-.32-.204-.42-.438-.117-.285-.176-.76-.176-1.428v-3.323c0-.336.043-.612.128-.83.085-.217.198-.368.338-.452.143-.086.258-.072.345.043.088.116.131.339.131.67v2.682c0 .389.019.704.056.945.036.242.102.408.198.499.096.092.225.087.388-.012.159-.096.309-.271.449-.524s.242-.534.307-.842c.053-.27.08-.804.08-1.605v-2.035c0-.33.043-.606.13-.826.088-.22.202-.373.342-.457.14-.085.253-.07.338.044.086.114.128.338.128.673v4.842c0 .319-.04.583-.123.791-.081.21-.186.353-.315.432-.129.078-.236.06-.32-.054-.083-.114-.126-.32-.126-.619M300.541 71.78v.202c.166-.487.347-.88.544-1.18.197-.3.423-.527.678-.68.248-.15.47-.188.666-.115.196.073.342.255.438.547.062.165.103.36.121.585.018.225.028.52.028.885v3.097c0 .334-.043.612-.13.835-.086.224-.198.377-.336.461-.14.086-.254.068-.342-.054-.087-.122-.131-.345-.131-.67v-2.777c0-.55-.043-.943-.13-1.182-.086-.238-.258-.28-.515-.124-.168.101-.32.282-.459.543-.138.26-.24.565-.304.913-.046.277-.069.755-.069 1.435v2.09c0 .338-.044.619-.133.842-.088.223-.203.377-.343.463-.136.083-.248.063-.335-.06-.087-.122-.13-.346-.13-.672v-4.826c0-.318.038-.579.116-.783.079-.204.186-.347.321-.43.083-.05.158-.06.224-.03.068.029.12.1.16.215.041.114.061.271.061.47"/>
            <path fill="#000" d="M237.495 274.405l-4.753-.523c-.653-.072-1.256.337-1.338.907l-.072.5c-.082.57.385 1.096 1.039 1.168l5.503.606c.241.026.463-.125.493-.335l.167-1.154c.082-.571-.385-1.097-1.039-1.169M246.641 274.405l-4.753-.523c-.653-.072-1.256.337-1.338.907l-.072.5c-.082.57.385 1.096 1.039 1.168l5.504.606c.24.026.462-.125.493-.335l.166-1.154c.082-.571-.385-1.097-1.039-1.169"/>
            <path fill="#313B3A" d="M229.38 248.2s1.96 22.252 2.613 26.247h3.266l3.267-15.406 2.613 15.406h2.613s3.267-17.689 2.613-26.818l-16.985.571z"/>
            <path fill="#F4F419" d="M224.346 222.364s1.135-.496 2.27 1.486c1.134 1.982 7.374 6.936 13.046 7.431 5.672.496 9.359-1.238 12.195-3.716 2.836-2.476 6.807-4.458 7.374-3.963.567.496.567.99-1.702 3.963s-9.643 8.918-10.21 10.9c-.567 1.981-.567 9.908-.567 9.908s-14.748 1.486-18.152-.991c0 0 1.703-13.872 0-16.348-1.701-2.478-6.806-7.927-4.254-8.67"/>
            <path fill="#FFE0B8" d="M245.521 226.135a5.331 5.331 0 1 1-5.33-5.332 5.331 5.331 0 0 1 5.33 5.332"/>
            <path fill="#5B3C1A" d="M243.583 227.75a.808.808 0 0 0 0-1.615h-.161v-1.939h-8.197a5.332 5.332 0 1 1 8.197 6.18v-2.625"/>
            <path fill="#FFE0B8" d="M225.178 221.515a1.628 1.628 0 1 1-3.257 0 1.628 1.628 0 0 1 3.257 0M261.717 222.6a1.629 1.629 0 1 1-3.257 0 1.629 1.629 0 0 1 3.257 0"/>
            <path fill="#000" d="M146.877 204.338l5.048-.555c.694-.077 1.334.357 1.421.963l.076.53c.088.607-.409 1.166-1.103 1.241l-5.845.644c-.256.028-.492-.132-.524-.355l-.176-1.227c-.088-.606.409-1.164 1.103-1.24M137.163 204.338l5.048-.555c.694-.077 1.334.357 1.422.963l.075.53c.088.607-.409 1.166-1.103 1.241l-5.845.644c-.255.028-.491-.132-.523-.355l-.177-1.227c-.088-.606.409-1.164 1.103-1.24"/>
            <path fill="#313B3A" d="M155.496 176.507s-2.082 23.633-2.776 27.875h-3.469l-3.47-16.361-2.775 16.361h-2.775s-3.469-18.786-2.775-28.481l18.04.606z"/>
            <path fill="#CE212A" d="M168.137 176.03s-7.591-22.402-18.22-22.022c-10.627.38-12.524 3.037-16.32 9.872 0 0-3.796-5.316-5.694-4.936-1.897.38 1.14 7.973 4.176 11.77 3.036 3.797 5.503-4.367 5.503-4.367l-1.139 10.632s14.803 1.518 20.497-1.519l.38-6.834s11.386 14.048 10.817 7.404"/>
            <path fill="#FFE0B8" d="M141.568 147.743a6.264 6.264 0 1 0 12.525 0 6.264 6.264 0 0 0-12.525 0"/>
            <path fill="#5B3C1A" d="M141.42 147.363c.408-3.436 2.803-6.265 6.262-6.265a6.266 6.266 0 0 1 5.882 4.108s-8.539 4.056-6.261 16.965l-4.555.76s-2.278-7.594-1.329-15.568"/>
            <path fill="#FFE0B8" d="M166.619 177.738a1.709 1.709 0 1 0 3.417 0 1.709 1.709 0 0 0-3.417 0M125.626 157.994a1.709 1.709 0 1 0 3.417 0 1.709 1.709 0 0 0-3.417 0"/>
            <path fill="#000" d="M390.46 210.47l-4.753-.522c-.653-.072-1.256.336-1.338.907l-.072.499c-.082.57.385 1.097 1.04 1.168l5.503.606c.24.027.462-.124.493-.334l.166-1.155c.082-.57-.385-1.096-1.039-1.168M399.606 210.47l-4.752-.522c-.654-.072-1.256.336-1.339.907l-.072.499c-.082.57.385 1.097 1.04 1.168l5.503.606c.24.027.463-.124.493-.334l.166-1.155c.083-.57-.385-1.096-1.039-1.168"/>
            <path fill="#313B3A" d="M382.345 184.266s1.96 22.252 2.613 26.246h3.267l3.267-15.406 2.613 15.406h2.612s3.267-17.688 2.614-26.817l-16.986.57z"/>
            <path fill="#22B23A" d="M377.312 158.43s1.134-.496 2.268 1.486c1.135 1.981 7.375 6.935 13.047 7.43 5.672.496 9.359-1.238 12.195-3.715 2.836-2.477 6.807-4.458 7.374-3.963.567.495.567.99-1.702 3.963s-9.642 8.917-10.21 10.9c-.567 1.98-.567 9.907-.567 9.907s-14.747 1.487-18.151-.99c0 0 1.702-13.872 0-16.35-1.702-2.476-6.807-7.925-4.254-8.669"/>
            <path fill="#FFE0B8" d="M398.487 162.2a5.331 5.331 0 1 1-5.33-5.331 5.33 5.33 0 0 1 5.33 5.332"/>
            <path fill="#5B3C1A" d="M396.548 163.817a.808.808 0 0 0 0-1.616h-.161v-1.94h-8.197a5.331 5.331 0 1 1 8.197 6.181v-2.625"/>
            <path fill="#FFE0B8" d="M378.143 157.58a1.629 1.629 0 1 1-3.257 0 1.629 1.629 0 0 1 3.257 0M414.682 158.666a1.629 1.629 0 1 1-3.257 0 1.629 1.629 0 0 1 3.257 0"/>
        </g>
    </g>
</svg>
